<svg version="1.2" baseProfile="tiny-ps" xmlns="http://www.w3.org/2000/svg" viewBox="0 0 341 148" width="341" height="148">
	<title>logo</title>
	<style>
		tspan { white-space:pre }
		.shp0 { fill: #ffffff } 
	</style>
	<path id="Forma 1" class="shp0" d="M64 52L276 52L276 95L64 95L64 52Z" />
	<path id="Fatecmonitor " fill="#3a5461" aria-label="Fatecmonitor"  d="M70.87 86.84L70.14 60.54Q70.12 60.09 70.22 59.82Q70.32 59.55 70.65 59.39Q70.99 59.24 71.61 59.19Q72.22 59.12 73.25 59.12Q73.54 59.12 73.79 59.12Q74.07 59.12 74.31 59.14L81.16 59.14Q81.6 59.14 81.84 59.2Q82.1 59.27 82.2 59.46Q82.32 59.65 82.34 59.97Q82.37 60.3 82.37 60.81Q82.37 61.32 82.34 61.66Q82.32 61.99 82.2 62.18Q82.1 62.35 81.84 62.42Q81.6 62.48 81.16 62.48L76.31 62.48L76 72.98L80.12 72.98Q80.56 72.98 80.8 73.05Q81.06 73.11 81.16 73.3Q81.28 73.47 81.3 73.8Q81.33 74.11 81.33 74.6Q81.33 75.1 81.3 75.42Q81.28 75.73 81.16 75.92Q81.06 76.09 80.8 76.16Q80.56 76.23 80.12 76.23L75.91 76.23L75.6 86.92Q75.6 87.27 75.52 87.47Q75.45 87.68 75.19 87.79Q74.96 87.91 74.49 87.97Q74.03 88 73.25 88Q72.46 88 71.98 87.97Q71.52 87.93 71.28 87.81Q71.04 87.69 70.96 87.47Q70.89 87.23 70.87 86.84ZM85.28 83.95L85.26 83.03Q85.24 82.07 85.67 81.35Q86.1 80.62 86.76 80.07Q87.45 79.52 88.3 79.15Q89.16 78.75 89.99 78.48Q91.07 78.12 92.27 77.87Q93.48 77.61 94.63 77.42L94.47 71.76Q94.44 70.82 93.99 70.38Q93.57 69.92 92.63 69.92Q92.18 69.92 91.82 69.99Q91.46 70.06 91.19 70.26Q90.93 70.47 90.78 70.82Q90.63 71.18 90.61 71.75L90.49 75.63Q90.49 75.95 90.39 76.14Q90.3 76.33 90.03 76.43Q89.76 76.53 89.24 76.57Q88.75 76.6 87.91 76.6Q87.14 76.6 86.66 76.57Q86.18 76.53 85.93 76.43Q85.67 76.33 85.59 76.14Q85.5 75.95 85.48 75.63L85.35 71.99Q85.31 71.08 85.65 70.38Q86 69.66 86.58 69.15Q87.17 68.62 87.93 68.26Q88.7 67.9 89.52 67.68Q90.35 67.44 91.17 67.36Q91.99 67.25 92.68 67.25Q94.15 67.25 95.46 67.59Q96.8 67.92 97.79 68.55Q98.78 69.18 99.34 70.11Q99.92 71.01 99.89 72.19L99.36 87.03Q99.34 87.35 99.26 87.54Q99.19 87.73 98.95 87.83Q98.71 87.93 98.27 87.97Q97.84 88 97.12 88Q96.45 88 96.04 87.97Q95.65 87.93 95.43 87.83Q95.22 87.73 95.14 87.54Q95.07 87.35 95.07 87.03L95.05 86.43Q94.59 86.77 94.04 87.09Q93.5 87.4 92.88 87.66Q92.27 87.9 91.57 88.05Q90.88 88.21 90.13 88.21Q88.94 88.21 88.03 87.88Q87.12 87.54 86.51 86.97Q85.91 86.39 85.6 85.62Q85.29 84.84 85.28 83.95ZM89.94 82.77L89.94 83.44Q89.94 83.95 90.1 84.33Q90.25 84.68 90.51 84.92Q90.76 85.15 91.11 85.27Q91.46 85.37 91.87 85.37Q92.87 85.37 93.58 85.04Q94.3 84.72 94.81 84.29L94.69 79.9Q93.77 80.05 93.07 80.26Q92.37 80.45 91.82 80.69Q90.97 81.08 90.46 81.56Q89.94 82.02 89.94 82.77ZM105.19 87.03L104.83 72.17L103.87 72.17Q103.43 72.17 103.17 72.11Q102.93 72.04 102.81 71.85Q102.69 71.66 102.66 71.34Q102.64 71 102.64 70.47Q102.64 69.99 102.66 69.7Q102.69 69.39 102.81 69.22Q102.93 69.05 103.17 69Q103.43 68.93 103.87 68.93L104.74 68.93L104.64 64.16Q104.64 63.8 104.71 63.56Q104.79 63.31 105.08 63.17Q105.38 63.03 105.92 62.98Q106.49 62.91 107.41 62.91Q108.33 62.91 108.88 62.98Q109.44 63.03 109.73 63.17Q110.02 63.31 110.09 63.56Q110.18 63.8 110.18 64.16L110.06 68.93L110.95 68.93Q111.39 68.93 111.63 69Q111.89 69.05 112.01 69.22Q112.13 69.39 112.14 69.7Q112.18 69.99 112.18 70.47Q112.18 71 112.14 71.34Q112.13 71.66 112.01 71.85Q111.89 72.04 111.63 72.11Q111.39 72.17 110.95 72.17L109.99 72.17L109.65 87.03Q109.65 87.35 109.56 87.54Q109.48 87.73 109.24 87.83Q109 87.93 108.55 87.97Q108.13 88 107.41 88Q106.69 88 106.25 87.97Q105.82 87.93 105.58 87.83Q105.36 87.73 105.27 87.54Q105.19 87.35 105.19 87.03ZM115.15 83.28L114.76 72.45Q114.71 71.08 115.32 70.11Q115.95 69.12 117 68.48Q118.06 67.85 119.41 67.56Q120.77 67.25 122.19 67.25Q123.54 67.25 124.84 67.56Q126.14 67.85 127.15 68.48Q128.16 69.12 128.74 70.11Q129.34 71.08 129.28 72.45L129.03 78.75Q129.01 79.08 128.91 79.27Q128.82 79.46 128.57 79.56Q128.31 79.66 127.83 79.69Q127.37 79.73 126.6 79.73L119.94 79.73L119.83 83.42Q119.82 84.07 119.95 84.51Q120.11 84.96 120.4 85.23Q120.69 85.5 121.12 85.62Q121.54 85.74 122.09 85.74Q123.18 85.74 123.7 85.27Q124.21 84.79 124.21 83.57L124.21 83.04Q124.21 82.72 124.29 82.51Q124.38 82.29 124.62 82.17Q124.88 82.04 125.34 81.98Q125.8 81.93 126.57 81.93Q127.32 81.93 127.78 81.98Q128.24 82.04 128.48 82.17Q128.74 82.29 128.81 82.5Q128.89 82.7 128.89 83.03L128.89 83.78Q128.89 85.13 128.31 85.98Q127.73 86.84 126.77 87.33Q125.83 87.83 124.6 88.02Q123.39 88.21 122.11 88.21Q120.81 88.21 119.58 87.97Q118.35 87.71 117.37 87.15Q116.42 86.56 115.8 85.62Q115.2 84.68 115.15 83.28ZM120.02 77.17L124.21 77.17L124.04 72.16Q124.02 71.44 123.87 71Q123.73 70.55 123.47 70.31Q123.23 70.07 122.89 70Q122.57 69.92 122.19 69.92Q121.76 69.92 121.41 70Q121.05 70.07 120.77 70.31Q120.52 70.55 120.35 71Q120.19 71.44 120.18 72.16L120.02 77.17ZM133.3 83.28L132.91 72.45Q132.86 71.08 133.45 70.11Q134.07 69.12 135.09 68.48Q136.14 67.85 137.49 67.56Q138.84 67.25 140.26 67.25Q141.71 67.25 143.06 67.56Q144.41 67.85 145.43 68.48Q146.46 69.12 147.06 70.11Q147.66 71.08 147.6 72.45L147.43 77.76Q147.42 78.09 147.31 78.28Q147.21 78.46 146.94 78.57Q146.66 78.67 146.17 78.7Q145.67 78.74 144.89 78.74Q144.08 78.74 143.59 78.7Q143.09 78.67 142.82 78.57Q142.55 78.46 142.44 78.28Q142.36 78.09 142.34 77.76L142.19 72.16Q142.17 71.44 142.02 71Q141.88 70.55 141.62 70.31Q141.37 70.07 141.02 70Q140.68 69.92 140.26 69.92Q139.83 69.92 139.49 70Q139.15 70.07 138.89 70.31Q138.63 70.55 138.48 71Q138.34 71.44 138.32 72.16L137.98 83.42Q137.97 84.07 138.09 84.51Q138.22 84.96 138.5 85.23Q138.79 85.5 139.21 85.62Q139.66 85.74 140.26 85.74Q141.45 85.74 141.98 85.27Q142.53 84.79 142.53 83.57L142.53 83.04Q142.53 82.72 142.61 82.51Q142.7 82.29 142.94 82.17Q143.2 82.04 143.66 81.98Q144.12 81.93 144.89 81.93Q145.64 81.93 146.1 81.98Q146.56 82.04 146.8 82.17Q147.06 82.29 147.14 82.5Q147.23 82.7 147.23 83.03L147.23 83.44Q147.23 84.79 146.63 85.71Q146.03 86.62 145.06 87.18Q144.08 87.73 142.84 87.97Q141.59 88.21 140.27 88.21Q138.94 88.21 137.71 87.97Q136.48 87.71 135.5 87.15Q134.55 86.56 133.95 85.62Q133.35 84.68 133.3 83.28Z" />
	<path id="Fatecmonitor " fill="#b01116" aria-label="Fatecmonitor"  d="M151.77 87.03L151.23 68.71Q151.23 68.35 151.3 68.11Q151.38 67.85 151.64 67.71Q151.91 67.58 152.42 67.53Q152.95 67.46 153.83 67.46Q154.7 67.46 155.21 67.53Q155.74 67.58 156 67.71Q156.27 67.85 156.34 68.11Q156.42 68.35 156.42 68.71L156.39 69.75Q156.87 69.2 157.36 68.76Q157.88 68.3 158.44 67.97Q159.02 67.63 159.67 67.44Q160.32 67.25 161.09 67.25Q162.54 67.25 163.67 67.97Q164.8 68.69 165.38 70.02Q165.89 69.42 166.4 68.93Q166.93 68.42 167.53 68.04Q168.13 67.66 168.81 67.46Q169.5 67.25 170.32 67.25Q171.36 67.25 172.25 67.63Q173.15 68 173.79 68.72Q174.44 69.44 174.78 70.47Q175.14 71.49 175.1 72.79L174.69 87.03Q174.69 87.35 174.61 87.54Q174.52 87.73 174.28 87.83Q174.04 87.93 173.6 87.97Q173.17 88 172.45 88Q171.74 88 171.29 87.97Q170.86 87.93 170.62 87.83Q170.4 87.73 170.32 87.54Q170.23 87.35 170.23 87.03L169.84 73.29Q169.82 72.62 169.67 72.17Q169.51 71.73 169.26 71.47Q169 71.22 168.64 71.12Q168.3 71.01 167.89 71.01Q167.24 71.01 166.73 71.39Q166.23 71.75 165.87 72.26L165.87 72.79L165.46 87.03Q165.46 87.35 165.38 87.54Q165.29 87.73 165.05 87.83Q164.81 87.93 164.37 87.97Q163.94 88 163.22 88Q162.51 88 162.06 87.97Q161.64 87.93 161.4 87.83Q161.17 87.73 161.09 87.54Q161 87.35 161 87.03L160.61 73.29Q160.59 72.62 160.44 72.17Q160.29 71.73 160.03 71.47Q159.77 71.22 159.41 71.12Q159.07 71.01 158.66 71.01Q158.01 71.01 157.52 71.37Q157.02 71.73 156.66 72.23L156.23 87.03Q156.23 87.35 156.15 87.54Q156.06 87.73 155.82 87.83Q155.59 87.93 155.14 87.97Q154.71 88 154 88Q153.28 88 152.83 87.97Q152.41 87.93 152.17 87.83Q151.95 87.73 151.86 87.54Q151.77 87.35 151.77 87.03ZM179.12 83.28L178.73 72.45Q178.67 71.08 179.27 70.11Q179.89 69.12 180.91 68.48Q181.96 67.85 183.31 67.56Q184.66 67.25 186.07 67.25Q187.49 67.25 188.84 67.56Q190.19 67.85 191.22 68.48Q192.26 69.12 192.86 70.11Q193.47 71.08 193.42 72.45L193.03 83.27Q192.98 84.67 192.38 85.62Q191.78 86.56 190.82 87.15Q189.87 87.71 188.64 87.97Q187.41 88.21 186.09 88.21Q184.76 88.21 183.53 87.97Q182.3 87.71 181.32 87.15Q180.37 86.56 179.77 85.62Q179.17 84.68 179.12 83.28ZM184.14 72.16L183.8 83.42Q183.78 84.07 183.9 84.51Q184.04 84.96 184.31 85.23Q184.6 85.5 185.03 85.62Q185.48 85.74 186.07 85.74Q187.27 85.74 187.82 85.23Q188.38 84.72 188.35 83.4L188 72.16Q187.99 71.44 187.83 71Q187.7 70.55 187.44 70.31Q187.18 70.07 186.84 70Q186.5 69.92 186.07 69.92Q185.65 69.92 185.3 70Q184.96 70.07 184.71 70.31Q184.45 70.55 184.3 71Q184.16 71.44 184.14 72.16ZM197.92 87.03L197.37 68.71Q197.37 68.35 197.44 68.11Q197.52 67.85 197.78 67.71Q198.05 67.58 198.57 67.53Q199.1 67.46 199.97 67.46Q200.84 67.46 201.35 67.53Q201.88 67.58 202.14 67.71Q202.41 67.85 202.48 68.11Q202.57 68.35 202.57 68.71L202.53 69.75Q203.01 69.2 203.51 68.76Q204.02 68.3 204.58 67.97Q205.16 67.63 205.81 67.44Q206.46 67.25 207.23 67.25Q208.27 67.25 209.16 67.63Q210.07 68 210.7 68.72Q211.35 69.44 211.69 70.47Q212.05 71.49 212.02 72.79L211.61 87.03Q211.61 87.35 211.52 87.54Q211.44 87.73 211.2 87.83Q210.96 87.93 210.51 87.97Q210.08 88 209.37 88Q208.65 88 208.21 87.97Q207.78 87.93 207.54 87.83Q207.32 87.73 207.23 87.54Q207.15 87.35 207.15 87.03L206.75 73.29Q206.74 72.62 206.58 72.17Q206.43 71.73 206.17 71.47Q205.92 71.22 205.56 71.12Q205.21 71.01 204.8 71.01Q204.15 71.01 203.66 71.37Q203.16 71.73 202.8 72.23L202.38 87.03Q202.38 87.35 202.29 87.54Q202.21 87.73 201.97 87.83Q201.73 87.93 201.28 87.97Q200.86 88 200.14 88Q199.42 88 198.98 87.97Q198.55 87.93 198.31 87.83Q198.09 87.73 198 87.54Q197.92 87.35 197.92 87.03ZM218.68 64.76Q217.84 64.76 217.33 64.72Q216.84 64.69 216.56 64.59Q216.31 64.48 216.2 64.3Q216.12 64.11 216.12 63.78L215.91 60.45Q215.91 60.09 215.98 59.85Q216.07 59.6 216.36 59.46Q216.65 59.32 217.19 59.27Q217.76 59.2 218.68 59.2Q219.6 59.2 220.15 59.27Q220.71 59.32 221.01 59.46Q221.3 59.6 221.36 59.85Q221.45 60.09 221.45 60.45L221.26 63.78Q221.26 64.11 221.16 64.3Q221.07 64.48 220.8 64.59Q220.53 64.69 220.01 64.72Q219.52 64.76 218.68 64.76ZM216.36 87.03L215.81 68.71Q215.81 68.35 215.88 68.11Q215.96 67.85 216.25 67.71Q216.54 67.58 217.09 67.53Q217.66 67.46 218.58 67.46Q219.5 67.46 220.05 67.53Q220.61 67.58 220.9 67.71Q221.19 67.85 221.26 68.11Q221.35 68.35 221.35 68.71L220.82 87.03Q220.82 87.35 220.73 87.54Q220.65 87.73 220.41 87.83Q220.17 87.93 219.72 87.97Q219.3 88 218.58 88Q217.86 88 217.42 87.97Q216.99 87.93 216.75 87.83Q216.53 87.73 216.44 87.54Q216.36 87.35 216.36 87.03ZM226.68 87.03L226.32 72.17L225.36 72.17Q224.92 72.17 224.66 72.11Q224.42 72.04 224.3 71.85Q224.18 71.66 224.15 71.34Q224.13 71 224.13 70.47Q224.13 69.99 224.15 69.7Q224.18 69.39 224.3 69.22Q224.42 69.05 224.66 69Q224.92 68.93 225.36 68.93L226.23 68.93L226.13 64.16Q226.13 63.8 226.2 63.56Q226.29 63.31 226.58 63.17Q226.87 63.03 227.41 62.98Q227.98 62.91 228.9 62.91Q229.82 62.91 230.37 62.98Q230.93 63.03 231.23 63.17Q231.52 63.31 231.58 63.56Q231.67 63.8 231.67 64.16L231.55 68.93L232.44 68.93Q232.88 68.93 233.12 69Q233.38 69.05 233.5 69.22Q233.62 69.39 233.63 69.7Q233.67 69.99 233.67 70.47Q233.67 71 233.63 71.34Q233.62 71.66 233.5 71.85Q233.38 72.04 233.12 72.11Q232.88 72.17 232.44 72.17L231.48 72.17L231.14 87.03Q231.14 87.35 231.05 87.54Q230.97 87.73 230.73 87.83Q230.49 87.93 230.05 87.97Q229.62 88 228.9 88Q228.18 88 227.74 87.97Q227.31 87.93 227.07 87.83Q226.85 87.73 226.76 87.54Q226.68 87.35 226.68 87.03ZM236.64 83.28L236.25 72.45Q236.2 71.08 236.8 70.11Q237.41 69.12 238.44 68.48Q239.48 67.85 240.83 67.56Q242.18 67.25 243.6 67.25Q245.02 67.25 246.37 67.56Q247.72 67.85 248.74 68.48Q249.78 69.12 250.38 70.11Q251 71.08 250.95 72.45L250.55 83.27Q250.5 84.67 249.9 85.62Q249.31 86.56 248.35 87.15Q247.39 87.71 246.16 87.97Q244.93 88.21 243.62 88.21Q242.28 88.21 241.05 87.97Q239.82 87.71 238.85 87.15Q237.89 86.56 237.29 85.62Q236.69 84.68 236.64 83.28ZM241.67 72.16L241.33 83.42Q241.31 84.07 241.43 84.51Q241.56 84.96 241.84 85.23Q242.13 85.5 242.56 85.62Q243 85.74 243.6 85.74Q244.79 85.74 245.34 85.23Q245.91 84.72 245.87 83.4L245.53 72.16Q245.51 71.44 245.36 71Q245.22 70.55 244.97 70.31Q244.71 70.07 244.37 70Q244.03 69.92 243.6 69.92Q243.17 69.92 242.83 70Q242.49 70.07 242.23 70.31Q241.97 70.55 241.82 71Q241.68 71.44 241.67 72.16ZM255.44 87.03L254.89 68.71Q254.89 68.35 254.96 68.11Q255.05 67.85 255.3 67.71Q255.58 67.58 256.09 67.53Q256.62 67.46 257.49 67.46Q258.36 67.46 258.88 67.53Q259.39 67.58 259.66 67.71Q259.94 67.85 260 68.11Q260.09 68.35 260.09 68.71L260.09 69.71Q260.57 69.18 261.06 68.74Q261.58 68.28 262.12 67.95Q262.69 67.63 263.3 67.44Q263.94 67.25 264.65 67.25Q265.47 67.25 266.17 67.49Q266.89 67.73 267.39 68.26Q267.9 68.79 268.17 69.65Q268.45 70.48 268.41 71.7L268.29 75.63Q268.29 75.95 268.19 76.14Q268.1 76.33 267.85 76.43Q267.59 76.53 267.11 76.57Q266.65 76.6 265.88 76.6Q265.11 76.6 264.65 76.57Q264.19 76.53 263.94 76.43Q263.7 76.33 263.61 76.14Q263.54 75.95 263.52 75.63L263.46 73.29Q263.44 72.62 263.34 72.17Q263.23 71.73 263.05 71.47Q262.88 71.22 262.64 71.12Q262.4 71.01 262.09 71.01Q261.59 71.01 261.13 71.39Q260.69 71.76 260.33 72.23L259.9 87.03Q259.9 87.35 259.82 87.54Q259.73 87.73 259.49 87.83Q259.25 87.93 258.81 87.97Q258.38 88 257.66 88Q256.95 88 256.5 87.97Q256.07 87.93 255.83 87.83Q255.61 87.73 255.53 87.54Q255.44 87.35 255.44 87.03Z" />
</svg>